<?xml version="1.0" encoding="UTF-8"?>
<svg id="Ebene_1" data-name="Ebene 1" xmlns="http://www.w3.org/2000/svg" viewBox="0 0 640.55 200.8">
  <defs>
    <style>
      .cls-1 {
        fill: #fff;
      }

      .cls-1, .cls-2 {
        stroke-width: 0px;
      }

      .cls-2 {
        fill: #ffed00;
      }
    </style>
  </defs>
  <path class="cls-1" d="m538.5,113.12c-6.66-3.46-13.18-5.19-19.56-5.19-3.33,0-6.02.67-8.08,2-2.06,1.33-3.09,3.13-3.09,5.39,0,1.2.17,2.16.5,2.9.33.73,1.06,1.43,2.2,2.1,1.13.67,2.79,1.27,4.99,1.8,2.2.53,5.09,1.2,8.68,2,9.98,2,17.43,5.56,22.36,10.68,4.92,5.13,7.39,11.68,7.39,19.66,0,5.99-1.2,11.38-3.59,16.17s-5.72,8.82-9.98,12.08c-4.26,3.26-9.38,5.79-15.37,7.59s-12.58,2.69-19.76,2.69c-13.84,0-27.48-3.92-40.93-11.78l13.18-25.55c10.11,6.92,19.7,10.38,28.75,10.38,3.33,0,6.06-.73,8.19-2.2,2.13-1.47,3.19-3.33,3.19-5.59,0-1.33-.17-2.43-.5-3.29-.33-.86-1.03-1.66-2.1-2.39-1.07-.73-2.63-1.4-4.69-2-2.06-.6-4.76-1.23-8.08-1.9-11.18-2.26-19-5.62-23.46-10.08-4.46-4.46-6.69-10.61-6.69-18.47,0-5.72,1.06-10.88,3.19-15.47,2.13-4.59,5.19-8.49,9.18-11.68,3.99-3.19,8.81-5.65,14.47-7.39,5.66-1.73,11.94-2.59,18.87-2.59,11.31,0,22.29,2.2,32.94,6.59l-12.18,23.56Z"/>
  <path class="cls-1" d="m619.99,116.91v72.27h-36.13v-72.27h-11.98v-30.14h11.98v-30.75h36.13v30.75h20.56v30.14h-20.56Z"/>
  <path class="cls-1" d="m121.94,150.44c3.63-4.36,6.58-9.3,8.75-14.88,2.59-6.65,3.89-13.78,3.89-21.36s-1.27-14.47-3.79-21.06c-2.53-6.59-6.02-12.31-10.48-17.17-4.46-4.86-9.85-8.71-16.17-11.58-6.32-2.86-13.28-4.29-20.86-4.29-12.78,0-23.42,4.46-31.94,13.37V0H15.21v150.44h106.74Zm-69.7-44.93c1.26-2.86,2.93-5.36,4.99-7.49,2.06-2.13,4.49-3.79,7.29-4.99,2.79-1.2,5.79-1.8,8.98-1.8s6.39.63,9.18,1.9c2.79,1.26,5.26,2.96,7.39,5.09,2.13,2.13,3.79,4.63,4.99,7.49s1.8,5.89,1.8,9.08-.63,5.99-1.9,8.78c-1.27,2.79-2.93,5.26-4.99,7.39-2.07,2.13-4.49,3.79-7.29,4.99-2.8,1.2-5.79,1.8-8.98,1.8s-6.22-.63-9.08-1.9c-2.86-1.26-5.36-2.93-7.49-4.99-2.13-2.06-3.79-4.49-4.99-7.29-1.2-2.8-1.8-5.79-1.8-8.99s.63-6.22,1.9-9.08Z"/>
  <path class="cls-1" d="m180.91,121.82c.8.73,1.68,1.39,2.52,2.07h83.15c.83-.65,1.68-1.28,2.47-1.97,5.46-4.86,9.75-10.65,12.88-17.37,3.13-6.72,4.69-14.14,4.69-22.26s-1.53-15.54-4.59-22.26c-3.06-6.72-7.36-12.51-12.88-17.37-5.52-4.86-12.05-8.65-19.56-11.38-7.52-2.73-15.67-4.09-24.46-4.09s-17.14,1.4-24.65,4.19c-7.52,2.8-14.01,6.62-19.46,11.48-5.46,4.86-9.72,10.58-12.78,17.17-3.06,6.59-4.59,13.68-4.59,21.26,0,8.39,1.53,16.01,4.59,22.86,3.06,6.86,7.29,12.74,12.68,17.67Zm22.76-49.11c1.26-2.8,2.93-5.26,4.99-7.39,2.06-2.13,4.52-3.79,7.39-4.99,2.86-1.2,5.89-1.8,9.08-1.8s6.22.6,9.08,1.8c2.86,1.2,5.32,2.86,7.39,4.99,2.06,2.13,3.72,4.63,4.99,7.49,1.26,2.86,1.9,5.89,1.9,9.08s-.63,6.42-1.9,9.28c-1.27,2.86-2.93,5.36-4.99,7.49-2.07,2.13-4.53,3.79-7.39,4.99-2.86,1.2-5.89,1.8-9.08,1.8s-6.22-.6-9.08-1.8c-2.86-1.2-5.33-2.86-7.39-4.99-2.06-2.13-3.73-4.62-4.99-7.49-1.27-2.86-1.9-6.02-1.9-9.48,0-3.19.63-6.19,1.9-8.98Z"/>
  <path class="cls-1" d="m329.33,176.02c.71.75,1.48,1.43,2.22,2.13h65.05c.33-.39.68-.73,1-1.13v1.13h36.33v-92.17h-36.33v10.18c-8.38-8.91-18.97-13.37-31.74-13.37-7.59,0-14.51,1.43-20.76,4.29-6.26,2.86-11.65,6.75-16.17,11.68-4.53,4.93-8.05,10.68-10.58,17.27-2.53,6.59-3.79,13.54-3.79,20.86,0,7.86,1.3,15.11,3.89,21.76,2.59,6.66,6.22,12.45,10.88,17.37Zm24.55-48.01c1.2-2.73,2.83-5.15,4.89-7.29,2.06-2.13,4.52-3.79,7.39-4.99,2.86-1.2,5.95-1.8,9.28-1.8s6.22.6,9.08,1.8c2.86,1.2,5.32,2.86,7.39,4.99,2.06,2.13,3.72,4.62,4.99,7.49,1.26,2.86,1.9,5.89,1.9,9.08s-.63,6.19-1.9,8.99c-1.27,2.79-2.93,5.26-4.99,7.39-2.07,2.13-4.53,3.79-7.39,4.99-2.86,1.2-5.89,1.8-9.08,1.8s-6.42-.6-9.28-1.8c-2.86-1.2-5.33-2.86-7.39-4.99-2.06-2.13-3.69-4.62-4.89-7.49-1.2-2.86-1.8-5.95-1.8-9.28s.6-6.16,1.8-8.88Z"/>
  <rect class="cls-2" y="162.89" width="148.4" height="11.74"/>
  <rect class="cls-2" x="150.94" y="135.71" width="148.39" height="11.74"/>
  <rect class="cls-2" x="301.96" y="189.06" width="148.4" height="11.74"/>
</svg>