<svg width="30" height="26" viewBox="0 0 30 26" fill="none" xmlns="http://www.w3.org/2000/svg">
<mask id="mask0_98_92" style="mask-type:luminance" maskUnits="userSpaceOnUse" x="0" y="0" width="30" height="26">
<path d="M29.5254 0.120613H0.0527344V25.2573H29.5254V0.120613Z" fill="white"/>
</mask>
<g mask="url(#mask0_98_92)">
<path d="M3.68554 25.2456H16.1308C18.5566 25.2456 19.7636 24.0268 19.7636 21.5776V3.8003C19.7636 1.3628 18.5566 0.120613 16.1308 0.120613H3.68554C1.27148 0.120613 0.0527344 1.3628 0.0527344 3.8003V21.5776C0.0527344 24.0268 1.27148 25.2456 3.68554 25.2456ZM1.93945 21.5425V3.83545C1.93945 2.66358 2.57226 2.00733 3.79101 2.00733H16.0371C17.2558 2.00733 17.8769 2.66358 17.8769 3.83545V21.5425C17.8769 22.7144 17.2558 23.3589 16.0371 23.3589H3.79101C2.57226 23.3589 1.93945 22.7144 1.93945 21.5425Z" fill="white" fill-opacity="0.85"/>
<path d="M10.9043 15.8823H26.3496C28.0839 15.8823 29.5254 14.4292 29.5254 12.6831C29.5254 10.937 28.0839 9.4839 26.3496 9.4839H10.9043C9.15821 9.4839 7.72852 10.937 7.72852 12.6831C7.72852 14.4292 9.15821 15.8823 10.9043 15.8823Z" fill="#292B34"/>
<path d="M10.9043 13.6089H22.9394L24.6855 13.5386L23.8652 14.3354L21.9668 16.105C21.7793 16.269 21.6855 16.5151 21.6855 16.7378C21.6855 17.23 22.0371 17.5933 22.5058 17.5933C22.7636 17.5933 22.9511 17.4995 23.1269 17.3237L26.9472 13.3628C27.1816 13.1284 27.2636 12.9175 27.2636 12.6831C27.2636 12.437 27.1816 12.2378 26.9472 12.0034L23.1269 8.04249C22.9511 7.8667 22.7636 7.76123 22.5058 7.76123C22.0371 7.76123 21.6855 8.1128 21.6855 8.60499C21.6855 8.83936 21.7793 9.0855 21.9668 9.2495L23.8652 11.0308L24.6972 11.8276L22.9394 11.7456H10.9043C10.4121 11.7456 9.99023 12.1792 9.99023 12.6831C9.99023 13.187 10.4121 13.6089 10.9043 13.6089Z" fill="white" fill-opacity="0.85"/>
</g>
</svg>
